# xmcd
#
# Track frame offsets:
#	150
#	15748
#	32010
#	46198
#	59975
#	80890
#	100153
#	112353
#	129175
#	148235
#	164080
#	179735
#	196790
#
# Disc length: 2850 seconds
# Revision: 1
# Processed by: cddbd v1.5.2PL0 Copyright (c) Steve Scherf et al.
# Submitted via: dBpowerAMP V12.0
#
DISCID=c60b200d
DTITLE=Lee Roy Parnell - Career Hits and Hightlights
DYEAR=1997
DGENRE=Country
TTITLE0=The Rock
TTITLE1=What Kind Of Fool Do You Think I Am
TTITLE2=Tender Moment
TTITLE3=Love Without Mercy
TTITLE4=On The Road
TTITLE5=I'm Holding My Own
TTITLE6=A Little Bit Of You
TTITLE7=When A Woman Loves A Man
TTITLE8=Heart's Desire
TTITLE9=Givin' Water To A Drowning Man
TTITLE10=If The House Is Rockin'
TTITLE11=You Can't Get There From Here
TTITLE12=Lucky Me, Lucky You
EXTD=
EXTT0=
EXTT1=
EXTT2=
EXTT3=
EXTT4=
EXTT5=
EXTT6=
EXTT7=
EXTT8=
EXTT9=
EXTT10=
EXTT11=
EXTT12=
PLAYORDER=
